<svg width="1440" height="672" viewBox="0 0 1440 672" fill="none" xmlns="http://www.w3.org/2000/svg">
<path d="M0 373.5C579.027 277.544 904.168 283.1 1442 380.5V672H0V373.5Z" fill="#0D0D0D"/>
<path d="M529.515 78.5926C524.981 79.4436 520.447 82.1857 518.652 85.2114C517.613 87.008 516.951 88.8045 517.235 89.2773C517.518 89.6555 517.235 91.3575 516.668 92.9649C516.101 94.5723 515.912 96.9362 516.196 98.1654C516.762 100.624 516.951 100.718 522.808 107.054C526.492 110.93 526.587 111.025 524.603 112.632C521.769 115.185 518.841 121.048 517.613 127.005C516.29 133.34 517.046 171.918 518.557 177.875C519.313 180.901 519.313 182.508 518.274 184.966C517.424 186.952 517.235 188.654 517.801 189.694C518.274 190.545 518.557 193.098 518.557 195.367C518.274 200.757 519.502 208.227 521.108 211.914C523.186 216.642 523.753 220.519 522.43 222.126C521.675 223.072 521.486 224.585 521.958 226.57C523.375 233.189 523.942 254.18 522.714 258.53C522.052 260.894 520.258 267.702 518.652 273.658C516.951 279.615 514.59 289.638 513.362 295.879C510.244 310.818 509.394 314.033 507.977 315.452C507.41 316.113 506.843 318.761 506.749 321.408C506.749 323.961 505.804 329.256 504.576 333.039C502.592 339.847 502.498 340.036 504.198 343.44C505.521 346.182 506.938 347.316 510.905 348.924C513.645 350.058 517.235 352.233 518.935 353.746C524.509 358.947 526.209 359.703 532.916 359.703C538.395 359.703 539.718 359.325 542.268 357.15C548.692 351.855 548.031 348.735 538.112 338.334C534.428 334.457 531.971 330.958 531.877 329.729C531.877 327.744 527.626 322.827 526.02 322.827C524.698 322.827 525.264 319.896 526.965 317.343C527.909 315.924 528.949 314.033 529.326 313.182C529.799 311.953 531.027 311.669 536.317 311.764C544.158 311.953 548.314 310.251 548.692 306.658C548.975 304.389 548.314 303.821 542.552 300.985C535.467 297.392 534.522 295.784 536.884 290.489C537.734 288.787 538.867 285.667 539.434 283.587C540.096 281.506 541.89 276.873 543.496 273.186C546.897 265.149 548.598 252.384 551.715 210.307C552.282 203.31 552.943 195.178 553.226 192.342C554.077 184.777 551.715 164.732 548.409 150.265C547.653 147.145 546.614 142.228 545.952 139.391C545.386 136.555 544.063 131.732 543.024 128.706L541.229 123.128L543.874 117.549C545.669 113.672 547.275 111.687 549.164 110.93C551.715 109.89 551.715 109.701 551.526 102.799C551.432 96.6525 551.054 95.5179 549.164 94.005C547.936 93.0594 546.992 91.452 546.992 90.4119C546.992 89.2773 546.614 88.1426 546.047 87.8589C545.575 87.5753 545.102 86.2515 545.102 84.9278C545.102 83.604 543.969 81.5238 542.552 80.2C540.096 77.9307 536.317 77.458 529.515 78.5926Z" fill="#0D0D0D"/>
</svg>
