<svg width="1440" height="672" viewBox="0 0 1440 672" fill="none" xmlns="http://www.w3.org/2000/svg">
<path d="M0 373.5C579.027 277.544 904.168 283.1 1442 380.5V672H0V373.5Z" fill="#0D0D0D"/>
<path d="M523.496 81.9787C518.962 82.8297 514.427 85.5718 512.632 88.5975C511.593 90.394 510.932 92.1906 511.215 92.6634C511.499 93.0416 511.215 94.7435 510.649 96.351C510.082 97.9584 509.893 100.322 510.176 101.551C510.743 104.01 510.932 104.104 516.789 110.44C520.473 114.316 520.568 114.411 518.584 116.018C515.75 118.571 512.821 124.434 511.593 130.391C510.271 136.726 511.026 175.304 512.538 181.261C513.294 184.287 513.294 185.894 512.255 188.352C511.404 190.338 511.215 192.04 511.782 193.08C512.255 193.931 512.538 196.484 512.538 198.753C512.255 204.143 513.483 211.613 515.089 215.3C517.167 220.028 517.734 223.905 516.411 225.512C515.655 226.458 515.466 227.971 515.939 229.956C517.356 236.575 517.923 257.566 516.694 261.916C516.033 264.28 514.238 271.088 512.632 277.045C510.932 283.001 508.57 293.024 507.342 299.265C504.225 314.204 503.375 317.419 501.958 318.838C501.391 319.5 500.824 322.147 500.73 324.795C500.73 327.348 499.785 332.643 498.557 336.425C496.573 343.233 496.479 343.422 498.179 346.826C499.502 349.568 500.919 350.702 504.886 352.31C507.626 353.445 511.215 355.619 512.916 357.132C518.489 362.333 520.19 363.089 526.897 363.089C532.376 363.089 533.698 362.711 536.249 360.536C542.673 355.241 542.011 352.121 532.092 341.72C528.408 337.843 525.952 334.345 525.858 333.115C525.858 331.13 521.607 326.213 520.001 326.213C518.678 326.213 519.245 323.282 520.945 320.729C521.89 319.31 522.929 317.419 523.307 316.568C523.779 315.339 525.008 315.055 530.298 315.15C538.138 315.339 542.295 313.637 542.673 310.044C542.956 307.775 542.295 307.207 536.532 304.371C529.447 300.778 528.503 299.17 530.864 293.875C531.715 292.173 532.848 289.053 533.415 286.973C534.076 284.893 535.871 280.259 537.477 276.572C540.878 268.535 542.578 255.77 545.696 213.693C546.262 206.696 546.924 198.564 547.207 195.728C548.057 188.163 545.696 168.118 542.389 153.651C541.634 150.531 540.594 145.614 539.933 142.777C539.366 139.941 538.044 135.118 537.005 132.093L535.21 126.514L537.855 120.935C539.65 117.058 541.256 115.073 543.145 114.316C545.696 113.276 545.696 113.087 545.507 106.185C545.412 100.039 545.034 98.9039 543.145 97.3911C541.917 96.4455 540.972 94.8381 540.972 93.798C540.972 92.6634 540.594 91.5287 540.028 91.245C539.555 90.9614 539.083 89.6376 539.083 88.3138C539.083 86.9901 537.949 84.9099 536.532 83.5861C534.076 81.3168 530.298 80.844 523.496 81.9787Z" fill="black"/>
</svg>
