<svg width="44" height="43" viewBox="0 0 44 43" fill="none" xmlns="http://www.w3.org/2000/svg">
<path d="M22 0.602539C9.625 0.602539 0 9.96139 0 21.9942C0 36.0325 13.0625 42.0489 15.125 42.0489C16.5 42.0489 16.5 41.3804 16.5 40.7119V37.3694C11.6875 38.7064 9.625 36.0325 8.9375 34.027C8.9375 34.027 8.9375 33.3585 7.5625 32.0215C6.875 31.353 4.125 30.0161 6.875 30.0161C8.9375 30.0161 10.3125 32.69 10.3125 32.69C12.375 35.364 15.125 34.6955 16.5 34.027C16.5 32.69 17.875 31.353 17.875 31.353C12.375 30.6846 8.25 28.6791 8.25 21.3257C8.25 18.6518 8.9375 16.6463 10.3125 15.3093C10.3125 15.3093 8.9375 12.6353 10.3125 9.2929C10.3125 9.2929 13.75 9.2929 16.5 11.9669C18.5625 10.6299 25.4375 10.6299 27.5 11.9669C30.25 9.2929 33.6875 9.2929 33.6875 9.2929C35.0625 13.9723 33.6875 15.3093 33.6875 15.3093C35.0625 16.6463 35.75 18.6518 35.75 21.3257C35.75 28.6791 30.9375 30.6846 26.125 31.353C26.8125 32.0215 27.5 33.3585 27.5 35.364V40.7119C27.5 41.3804 27.5 42.0489 28.875 42.0489C30.9375 42.0489 44 36.0325 44 21.9942C44 9.96139 34.375 0.602539 22 0.602539Z" fill="white"/>
</svg>
