<svg width="44" height="47" viewBox="0 0 44 47" fill="none" xmlns="http://www.w3.org/2000/svg">
<path d="M21.6505 3.0844C11.9735 3.0844 12.5855 7.59346 12.5855 7.59346V12.2788H21.7881V13.7475H8.92052C8.92052 13.7475 2.72591 12.925 2.72591 23.5074C2.72591 34.0897 8.19543 33.6594 8.19543 33.6594H11.3534V28.7229C11.3534 28.7229 11.1762 22.8288 16.6689 22.8288H25.8852C25.8852 22.8288 31.0262 22.9169 31.0262 17.4649V8.51877C31.0262 8.51877 31.8058 3.06677 21.7009 3.06677L21.6505 3.0844ZM16.5639 6.22312C16.8911 6.21422 17.2134 6.31008 17.49 6.49856C17.7666 6.68704 17.9851 6.95968 18.1179 7.28201C18.2507 7.60433 18.2919 7.96186 18.2361 8.30938C18.1804 8.65689 18.0302 8.97879 17.8047 9.23435C17.5792 9.48991 17.2884 9.66767 16.9691 9.74513C16.6498 9.82259 16.3164 9.79629 16.011 9.66954C15.7056 9.54279 15.4419 9.3213 15.2534 9.03306C15.0648 8.74483 14.9598 8.4028 14.9516 8.05024V8.02087C14.9516 7.78671 14.9944 7.55485 15.0775 7.33852C15.1607 7.12219 15.2826 6.92562 15.4362 6.76005C15.5898 6.59448 15.7722 6.46314 15.973 6.37353C16.1737 6.28392 16.3889 6.2378 16.6062 6.2378L16.5639 6.22312Z" fill="url(#paint0_linear_15_46)"/>
<path d="M21.923 43.9303C31.6 43.9303 30.988 39.4065 30.988 39.4065V34.7359H21.7868V33.2672H34.6939C34.6939 33.2672 40.8885 34.0133 40.8885 23.4926C40.8885 12.972 35.419 13.3406 35.419 13.3406H32.2201V18.2125C32.2201 18.2125 32.3973 24.1066 26.9046 24.1066H17.6843C17.6843 24.1066 12.5391 24.0229 12.5391 29.4749V38.4812C12.5391 38.4812 11.7595 43.9332 21.8644 43.9332H21.919L21.923 43.9303ZM27.0096 40.7769C26.6824 40.7858 26.3602 40.6899 26.0836 40.5014C25.8069 40.313 25.5884 40.0403 25.4556 39.718C25.3228 39.3957 25.2817 39.0381 25.3374 38.6906C25.3932 38.3431 25.5433 38.0212 25.7688 37.7656C25.9944 37.5101 26.2851 37.3323 26.6044 37.2549C26.9237 37.1774 27.2571 37.2037 27.5625 37.3305C27.8679 37.4572 28.1316 37.6787 28.3202 37.9669C28.5087 38.2552 28.6138 38.5972 28.622 38.9498V38.9938C28.622 39.4667 28.4476 39.9202 28.1373 40.2546C27.827 40.589 27.4062 40.7769 26.9673 40.7769H27.0082H27.0096Z" fill="url(#paint1_linear_15_46)"/>
<defs>
<linearGradient id="paint0_linear_15_46" x1="6.49741" y1="7.08366" x2="25.9545" y2="25.0983" gradientUnits="userSpaceOnUse">
<stop stop-color="#387EB8"/>
<stop offset="1" stop-color="#366994"/>
</linearGradient>
<linearGradient id="paint1_linear_15_46" x1="17.2107" y1="19.7672" x2="39.2227" y2="37.5999" gradientUnits="userSpaceOnUse">
<stop stop-color="#FFE052"/>
<stop offset="1" stop-color="#FFC331"/>
</linearGradient>
</defs>
</svg>
