<svg width="386" height="386" viewBox="0 0 386 386" fill="none" xmlns="http://www.w3.org/2000/svg">
<g clip-path="url(#clip0_10_144)">
<path d="M325.486 60.3162C343.089 77.8975 357.231 98.9512 366.758 122.378C375.626 144.179 380.505 168.024 380.505 193.001C380.505 206.516 379.076 219.702 376.351 232.405C368.527 269.018 350.012 301.664 324.222 326.927C311.773 339.135 297.609 349.629 282.137 357.991C255.622 372.352 225.261 380.506 192.999 380.506C189.857 380.506 186.736 380.429 183.637 380.275C125.102 377.396 73.633 347.673 41.2613 303.17C18.7681 272.238 5.4942 234.163 5.4942 193.001C5.4942 190.946 5.52717 188.902 5.5931 186.858C6.94466 144.795 22.1635 106.226 46.8104 75.579C78.358 36.3506 125.377 10.0884 178.594 6.0447C183.352 5.68209 188.154 5.49529 192.999 5.49529C235.206 5.49529 274.148 19.4395 305.487 42.9656C312.564 48.2729 319.245 54.0748 325.486 60.3162Z" fill="#CACACA"/>
<path opacity="0.25" d="M216.556 370.341C194.623 362.594 174.558 350.87 157.241 336.046C117.034 301.653 91.5525 250.557 91.5525 193.505C91.5525 142.915 111.595 96.9946 144.165 63.2713C162.109 44.69 183.855 29.8008 208.15 19.8673C218.281 15.7302 228.859 12.4633 239.783 10.1349C227.115 7.43398 213.979 6 200.505 6C175.408 6 151.475 10.9338 129.597 19.8673C105.302 29.8008 83.5562 44.69 65.6122 63.2713C33.0428 96.9946 3.5 142.915 3.5 193.505C3.5 250.557 38.482 301.653 78.6884 336.046C96.006 350.87 116.071 362.594 138.004 370.341C157.552 377.253 178.594 381.011 200.505 381.011C213.972 381.011 227.106 379.582 239.771 376.883C231.835 375.191 224.084 373.002 216.556 370.341Z" fill="#040404"/>
<path opacity="0.25" d="M281.004 148.936C278.321 135.892 282.263 123.513 290.11 117.564C292.247 115.954 294.67 114.811 297.333 114.258C309.775 111.704 322.609 123.084 326.022 139.683C329.427 156.272 322.127 171.795 309.686 174.349C305.708 175.175 301.669 174.559 297.937 172.806C289.995 169.08 283.33 160.216 281.004 148.936Z" fill="#666666"/>
<path d="M281.004 148.936C278.321 135.892 282.263 123.513 290.11 117.564C298.051 121.293 304.735 130.16 307.042 141.436C309.725 154.481 305.783 166.858 297.936 172.807C289.995 169.08 283.33 160.216 281.004 148.936Z" fill="#CACACA"/>
<path d="M306.158 180.208C302.611 180.208 299.028 179.391 295.601 177.782C292.854 176.492 291.674 173.219 292.964 170.473C294.255 167.726 297.531 166.547 300.271 167.835C303.072 169.15 305.864 169.533 308.568 168.971C317.861 167.064 323.384 154.159 320.64 140.788C317.892 127.42 307.729 117.734 298.437 119.641C296.653 120.011 294.959 120.789 293.418 121.952C287.03 126.795 284.2 137.197 286.386 147.83C286.998 150.802 285.083 153.706 282.111 154.318C279.133 154.93 276.233 153.015 275.623 150.044C272.555 135.125 276.938 120.658 286.792 113.188C289.652 111.032 292.819 109.586 296.218 108.88C311.613 105.722 327.388 119.045 331.404 138.579C335.413 158.117 326.165 176.578 310.789 179.733C309.264 180.05 307.715 180.208 306.158 180.208Z" fill="#333333"/>
<path d="M326.694 108.739C324.888 108.739 323.121 107.851 322.071 106.221C315.1 95.4086 306.821 85.4312 297.465 76.5636C295.263 74.4769 295.169 70.9991 297.257 68.7959C299.341 66.5938 302.82 66.4993 305.024 68.5871C315.016 78.058 323.86 88.7156 331.305 100.265C332.949 102.816 332.215 106.216 329.665 107.861C328.744 108.455 327.712 108.739 326.694 108.739Z" fill="white"/>
<path d="M300.461 319.042C298.993 319.042 297.529 318.458 296.448 317.302C294.375 315.086 294.491 311.609 296.706 309.536C328.985 279.339 347.498 236.751 347.498 192.693C347.498 183.097 346.639 173.48 344.943 164.111C344.402 161.126 346.386 158.266 349.37 157.726C352.362 157.187 355.214 159.167 355.756 162.154C357.568 172.167 358.486 182.442 358.486 192.693C358.486 239.78 338.705 285.293 304.214 317.561C303.154 318.551 301.805 319.042 300.461 319.042Z" fill="white"/>
<path d="M277.35 337.13C275.552 337.13 273.789 336.248 272.736 334.627C271.085 332.082 271.808 328.679 274.354 327.028C277.161 325.206 279.943 323.273 282.623 321.285C285.06 319.475 288.501 319.987 290.309 322.422C292.118 324.86 291.608 328.3 289.171 330.109C286.308 332.234 283.335 334.299 280.337 336.245C279.413 336.845 278.376 337.13 277.35 337.13Z" fill="white"/>
<path d="M193.001 386C86.5794 386 0 299.42 0 193C0 86.5805 86.5794 0.00100708 193.001 0.00100708C299.421 0.00100708 386 86.5805 386 193C385.999 299.42 299.419 386 193.001 386ZM193.001 10.9894C92.6384 10.9894 10.9884 92.6394 10.9884 193C10.9884 293.362 92.6384 375.012 193.001 375.012C293.362 375.012 375.012 293.362 375.012 193C375.012 92.6394 293.362 10.9894 193.001 10.9894Z" fill="#333333"/>
<path opacity="0.25" d="M224.332 200.165C224.332 219.823 208.387 235.767 188.729 235.767C184.872 235.767 181.158 235.152 177.675 234.009C191.916 229.361 202.212 215.966 202.212 200.165C202.212 184.364 191.916 170.969 177.675 166.321C181.158 165.178 184.872 164.563 188.729 164.563C208.387 164.564 224.332 180.507 224.332 200.165Z" fill="#666666"/>
<path d="M109.329 284.625C107.296 287.284 104.746 289.416 101.692 290.866C88.3848 297.184 70.7595 287.899 62.3314 270.142C53.9034 252.385 57.8592 232.859 71.1661 226.54C73.177 225.584 75.2867 224.991 77.4514 224.727C89.5826 223.233 103.362 232.188 110.526 247.275C117.02 260.968 116.163 275.692 109.329 284.625Z" fill="#CACACA"/>
<path opacity="0.25" d="M109.329 284.625C97.1865 286.13 83.4071 277.164 76.2537 262.088C69.7596 248.396 70.6167 233.661 77.4514 224.727C89.5826 223.233 103.362 232.188 110.526 247.275C117.02 260.968 116.163 275.692 109.329 284.625Z" fill="#666666"/>
<path d="M92.8626 298.313C79.3063 298.313 64.9368 288.439 57.3713 272.499C47.6554 252.029 52.7859 229.188 68.808 221.583C76.8438 217.768 86.2278 218.278 95.2317 223.019C103.709 227.483 110.902 235.26 115.485 244.916C116.788 247.658 115.619 250.934 112.878 252.235C110.138 253.538 106.86 252.368 105.56 249.628C101.988 242.103 96.5019 236.107 90.1111 232.742C84.2455 229.653 78.3536 229.216 73.5187 231.51C62.9699 236.517 60.1799 252.79 67.2971 267.787C74.4143 282.782 88.7837 290.912 99.3369 285.905C104.17 283.611 107.557 278.769 108.874 272.272C109.477 269.297 112.377 267.375 115.349 267.977C118.324 268.58 120.246 271.478 119.643 274.453C117.624 284.425 112.086 292.017 104.049 295.832C100.503 297.515 96.7151 298.313 92.8626 298.313Z" fill="#333333"/>
<path d="M188.732 241.258C166.072 241.258 147.638 222.824 147.638 200.165C147.638 197.131 150.098 194.671 153.133 194.671C156.168 194.671 158.627 197.131 158.627 200.165C158.627 216.765 172.131 230.27 188.732 230.27C205.332 230.27 218.836 216.764 218.836 200.165C218.836 183.566 205.332 170.06 188.732 170.06C183.264 170.06 177.912 171.539 173.254 174.337C170.654 175.9 167.278 175.058 165.716 172.456C164.154 169.855 164.997 166.479 167.598 164.917C173.963 161.093 181.272 159.071 188.732 159.071C211.391 159.071 229.825 177.505 229.825 200.164C229.825 222.823 211.391 241.258 188.732 241.258Z" fill="#333333"/>
<path d="M186.537 110.084C181.356 110.084 176.487 108.066 172.824 104.404C170.679 102.258 170.679 98.7787 172.825 96.6338C174.969 94.4878 178.449 94.4878 180.595 96.6338C182.181 98.2216 184.292 99.0952 186.537 99.0952C188.782 99.0952 190.893 98.2205 192.481 96.6338C195.756 93.3571 195.756 88.0244 192.48 84.7466C190.893 83.1588 188.782 82.2852 186.537 82.2852C184.292 82.2852 182.181 83.1588 180.595 84.7466C178.449 86.8926 174.971 86.8926 172.825 84.7466C170.679 82.6017 170.679 79.1227 172.824 76.9767C176.487 73.3132 181.357 71.2968 186.537 71.2968C191.717 71.2968 196.587 73.3143 200.25 76.9767C207.811 84.5389 207.811 96.8426 200.251 104.404C196.586 108.066 191.717 110.084 186.537 110.084Z" fill="#333333"/>
<path d="M255.091 308.28C249.91 308.28 245.041 306.263 241.378 302.601C239.233 300.455 239.233 296.976 241.379 294.831C243.523 292.685 247.003 292.685 249.149 294.831C250.736 296.419 252.846 297.292 255.091 297.292C257.336 297.292 259.447 296.419 261.034 294.831C262.622 293.243 263.496 291.132 263.496 288.887C263.496 286.642 262.622 284.531 261.035 282.944C259.447 281.356 257.336 280.482 255.091 280.482C252.846 280.482 250.736 281.356 249.149 282.944C247.003 285.09 243.525 285.09 241.379 282.944C239.233 280.799 239.233 277.32 241.378 275.174C245.041 271.51 249.911 269.494 255.091 269.494C260.271 269.494 265.141 271.511 268.805 275.174C272.467 278.836 274.485 283.707 274.485 288.887C274.485 294.067 272.467 298.938 268.804 302.601C265.142 306.263 260.272 308.28 255.091 308.28Z" fill="#333333"/>
</g>
<defs>
<clipPath id="clip0_10_144">
<rect width="386" height="386" fill="white"/>
</clipPath>
</defs>
</svg>
