<svg width="51" height="282" viewBox="0 0 51 282" fill="none" xmlns="http://www.w3.org/2000/svg">
<path d="M26.5153 0.592621C21.9809 1.4436 17.4465 4.1857 15.6517 7.21143C14.6125 9.00797 13.9513 10.8045 14.2347 11.2773C14.5181 11.6555 14.2347 13.3575 13.6679 14.9649C13.1011 16.5723 12.9122 18.9362 13.1956 20.1654C13.7624 22.6238 13.9513 22.7184 19.8082 29.0535C23.4924 32.9303 23.5869 33.0248 21.6031 34.6322C18.7691 37.1852 15.8406 43.0476 14.6125 49.0045C13.29 55.3396 14.0457 93.9179 15.5572 99.8748C16.3129 102.901 16.3129 104.508 15.2738 106.966C14.4236 108.952 14.2347 110.654 14.8015 111.694C15.2738 112.545 15.5572 115.098 15.5572 117.367C15.2738 122.757 16.5019 130.227 18.1078 133.914C20.1861 138.642 20.7529 142.519 19.4303 144.126C18.6746 145.072 18.4857 146.585 18.958 148.57C20.375 155.189 20.9418 176.18 19.7137 180.53C19.0525 182.894 17.2576 189.702 15.6517 195.658C13.9513 201.615 11.5896 211.638 10.3616 217.879C7.24417 232.818 6.39397 236.033 4.97697 237.452C4.41018 238.113 3.84338 240.761 3.74891 243.408C3.74891 245.961 2.80425 251.256 1.57618 255.039C-0.40761 261.847 -0.502077 262.036 1.19832 265.44C2.52085 268.182 3.93784 269.316 7.90543 270.924C10.645 272.058 14.2347 274.233 15.9351 275.746C21.5086 280.947 23.209 281.703 29.9161 281.703C35.3952 281.703 36.7177 281.325 39.2683 279.15C45.692 273.855 45.0307 270.735 35.1118 260.334C31.4276 256.457 28.9714 252.958 28.877 251.729C28.877 249.744 24.626 244.827 23.0201 244.827C21.6975 244.827 22.2643 241.896 23.9647 239.343C24.9094 237.924 25.9485 236.033 26.3264 235.182C26.7987 233.953 28.0268 233.669 33.3169 233.764C41.1576 233.953 45.3141 232.251 45.692 228.658C45.9754 226.389 45.3141 225.821 39.5517 222.985C32.4667 219.392 31.522 217.784 33.8837 212.489C34.7339 210.787 35.8675 207.667 36.4343 205.587C37.0956 203.506 38.8904 198.873 40.4963 195.186C43.8971 187.149 45.5975 174.384 48.7149 132.307C49.2817 125.31 49.943 117.178 50.2264 114.342C51.0766 106.777 48.7149 86.7317 45.4086 72.2649C44.6529 69.1446 43.6137 64.2278 42.9525 61.3911C42.3857 58.5545 41.0631 53.7322 40.024 50.7065L38.2291 45.1278L40.8742 39.5491C42.6691 35.6723 44.275 33.6867 46.1643 32.9303C48.7149 31.8902 48.7149 31.701 48.526 24.7986C48.4315 18.6525 48.0537 17.5179 46.1643 16.005C44.9363 15.0594 43.9916 13.452 43.9916 12.4119C43.9916 11.2773 43.6137 10.1426 43.0469 9.85895C42.5746 9.57529 42.1023 8.25153 42.1023 6.92776C42.1023 5.604 40.9687 3.5238 39.5517 2.20004C37.0956 -0.0692749 33.3169 -0.542023 26.5153 0.592621Z" fill="#0D0D0D"/>
</svg>
