<svg width="44" height="47" viewBox="0 0 44 47" fill="none" xmlns="http://www.w3.org/2000/svg">
<path d="M41.1261 13.7822C41.1258 12.9939 40.9694 12.2974 40.653 11.6996C40.3423 11.1118 39.8769 10.6191 39.2527 10.2296C34.1 7.02787 28.9423 3.83595 23.7912 0.630971C22.4025 -0.23298 21.0561 -0.201484 19.6777 0.67487C17.6267 1.9783 7.35843 8.31792 4.29861 10.2278C3.03848 11.0139 2.42531 12.217 2.425 13.7807C2.42303 20.2195 2.425 26.6582 2.42303 33.0972C2.42303 33.8681 2.57311 34.5511 2.87553 35.1399C3.18644 35.7455 3.65832 36.2518 4.29694 36.6501C7.35691 38.56 17.6266 44.8991 19.6771 46.2029C21.0561 47.0797 22.4025 47.111 23.7917 46.2468C28.9429 43.0416 34.1009 39.8499 39.2543 36.6482C39.893 36.25 40.3648 35.7434 40.6758 35.1383C40.9777 34.5495 41.1281 33.8665 41.1281 33.0954C41.1281 33.0954 41.1281 20.2212 41.1261 13.7822Z" fill="#A179DC"/>
<path d="M21.8348 23.3762L2.87555 35.1399C3.18645 35.7455 3.65834 36.2518 4.29695 36.6501C7.35693 38.56 17.6266 44.8991 19.6771 46.2029C21.0561 47.0797 22.4025 47.1111 23.7917 46.2468C28.9429 43.0416 34.1009 39.8499 39.2544 36.6482C39.893 36.25 40.3649 35.7434 40.6758 35.1383L21.8348 23.3762Z" fill="#280068"/>
<path d="M41.1261 13.7822C41.1258 12.9939 40.9694 12.2974 40.653 11.6996L21.8348 23.3762L40.6757 35.1383C40.9777 34.5495 41.1278 33.8665 41.1281 33.0954C41.1281 33.0954 41.1281 20.2212 41.1261 13.7822Z" fill="#390091"/>
<path d="M32.9974 18.9785V21.1773H35.0378V18.9785H36.0581V21.1773H38.0985V22.2768H36.0581V24.4756H38.0985V25.575H36.0581V27.7738H35.0378V25.575H32.9974V27.7738H31.9772V25.575H29.9367V24.4756H31.9772V22.2768H29.9367V21.1773H31.9772V18.9785H32.9974ZM35.0378 22.2768H32.9974V24.4756H35.0378V22.2768Z" fill="white"/>
<path d="M21.8764 7.93549C27.1985 7.93549 31.8452 11.0503 34.334 15.6801L34.3097 15.6355L28.0479 19.5209C26.8142 17.2698 24.5525 15.7507 21.9581 15.7195L21.8764 15.719C17.9199 15.719 14.7124 19.1753 14.7124 23.4389C14.7124 24.8331 15.0573 26.1401 15.6572 27.269C16.8921 29.5921 19.2134 31.159 21.8764 31.159C24.5557 31.159 26.8903 29.5722 28.1189 27.2242L28.0891 27.2806L34.3415 31.1838C31.8799 35.7744 27.2969 38.8796 22.0366 38.9415L21.8764 38.9424C16.5375 38.9424 11.8776 35.8085 9.39501 31.1542C8.18304 28.8821 7.48959 26.2479 7.48959 23.4389C7.48959 14.8767 13.9306 7.93549 21.8764 7.93549Z" fill="white"/>
</svg>
