<svg width="43" height="46" viewBox="0 0 43 46" fill="none" xmlns="http://www.w3.org/2000/svg">
<path d="M28.4576 30.6666C32.3868 30.6666 35.572 27.2342 35.572 23C35.572 18.7658 32.3868 15.3333 28.4576 15.3333C24.5284 15.3333 21.3432 18.7658 21.3432 23C21.3432 27.2342 24.5284 30.6666 28.4576 30.6666Z" fill="#19BCFE"/>
<path fill-rule="evenodd" clip-rule="evenodd" d="M14.2288 46C18.158 46 21.3432 42.5675 21.3432 38.3334C21.3432 37.1775 21.3432 34.6219 21.3432 30.6667C18.1471 30.6667 15.7757 30.6667 14.2288 30.6667C10.2996 30.6667 7.11441 34.0992 7.11441 38.3334C7.11441 42.5675 10.2996 46 14.2288 46Z" fill="#09CF83"/>
<path fill-rule="evenodd" clip-rule="evenodd" d="M14.2288 30.6666C15.5385 30.6666 17.91 30.6666 21.3432 30.6666V15.3333C17.91 15.3333 15.5385 15.3333 14.2288 15.3333C10.2996 15.3333 7.11441 18.7658 7.11441 23C7.11441 27.2342 10.2996 30.6666 14.2288 30.6666Z" fill="#A259FF"/>
<path fill-rule="evenodd" clip-rule="evenodd" d="M14.2288 15.3333C15.5385 15.3333 17.91 15.3333 21.3432 15.3333V0C17.91 0 15.5385 0 14.2288 0C10.2996 0 7.11441 3.43248 7.11441 7.66667C7.11441 11.9009 10.2996 15.3333 14.2288 15.3333Z" fill="#F24E1E"/>
<path fill-rule="evenodd" clip-rule="evenodd" d="M28.4576 15.3333H21.3432V0H28.4576C32.3868 0 35.572 3.43248 35.572 7.66667C35.572 11.9009 32.3868 15.3333 28.4576 15.3333Z" fill="#FF7262"/>
</svg>
