<svg width="40" height="43" viewBox="0 0 40 43" fill="none" xmlns="http://www.w3.org/2000/svg">
<g clip-path="url(#clip0_15_12)">
<path d="M39.9025 0H0V43H39.9025V0Z" fill="#F1DC50"/>
<path d="M19.9513 19.7083C19.9513 28.2173 19.9513 32.9951 19.9513 34.0416C19.9513 35.6115 19.0819 37.625 16.6261 37.625C12.6601 37.625 12.4695 34.0416 12.4695 34.0416M34.5655 24.2162C33.5678 22.4054 32.2453 21.5 30.5978 21.5C28.0255 21.5 26.6017 23.2916 26.6017 25.0833C26.6017 26.875 27.433 28.6666 30.7722 29.5625C32.8971 30.1325 34.9147 31.3541 34.9147 34.0416C34.9147 36.7291 32.7276 37.625 30.7582 37.625C28.2413 37.625 26.5787 36.4305 25.7704 34.0416" stroke="#333333" stroke-width="4"/>
</g>
<defs>
<clipPath id="clip0_15_12">
<rect width="39.9025" height="43" fill="white"/>
</clipPath>
</defs>
</svg>
